<mxfile host="app.diagrams.net" agent="Mozilla/5.0 (X11; Linux x86_64; rv:128.0) Gecko/20100101 Firefox/128.0" version="27.0.6">
  <diagram name="Page-1" id="pb3PkHD-MwxdJpRpT7io">
    <mxGraphModel dx="1382" dy="749" grid="1" gridSize="10" guides="1" tooltips="1" connect="1" arrows="1" fold="1" page="1" pageScale="1" pageWidth="827" pageHeight="1169" math="0" shadow="0">
      <root>
        <mxCell id="0" />
        <mxCell id="1" parent="0" />
        <mxCell id="uZhzfblo8AT3ZPA7XqZ0-1" value="&lt;b&gt;&lt;font&gt;Screens accessible to logged in User&lt;/font&gt;&lt;/b&gt;" style="text;html=1;align=center;verticalAlign=middle;whiteSpace=wrap;rounded=0;fontFamily=Courier New;" vertex="1" parent="1">
          <mxGeometry x="270" y="100" width="300" height="30" as="geometry" />
        </mxCell>
        <mxCell id="uZhzfblo8AT3ZPA7XqZ0-4" value="" style="edgeStyle=orthogonalEdgeStyle;rounded=0;orthogonalLoop=1;jettySize=auto;html=1;fontFamily=Courier New;" edge="1" parent="1" source="uZhzfblo8AT3ZPA7XqZ0-2" target="uZhzfblo8AT3ZPA7XqZ0-3">
          <mxGeometry relative="1" as="geometry" />
        </mxCell>
        <mxCell id="uZhzfblo8AT3ZPA7XqZ0-6" value="" style="edgeStyle=orthogonalEdgeStyle;rounded=0;orthogonalLoop=1;jettySize=auto;html=1;fontFamily=Courier New;" edge="1" parent="1" source="uZhzfblo8AT3ZPA7XqZ0-2" target="uZhzfblo8AT3ZPA7XqZ0-5">
          <mxGeometry relative="1" as="geometry" />
        </mxCell>
        <mxCell id="uZhzfblo8AT3ZPA7XqZ0-10" value="" style="edgeStyle=orthogonalEdgeStyle;rounded=0;orthogonalLoop=1;jettySize=auto;html=1;fontFamily=Courier New;" edge="1" parent="1" source="uZhzfblo8AT3ZPA7XqZ0-2" target="uZhzfblo8AT3ZPA7XqZ0-9">
          <mxGeometry relative="1" as="geometry" />
        </mxCell>
        <mxCell id="uZhzfblo8AT3ZPA7XqZ0-14" value="" style="edgeStyle=orthogonalEdgeStyle;rounded=0;orthogonalLoop=1;jettySize=auto;html=1;fontFamily=Courier New;" edge="1" parent="1" source="uZhzfblo8AT3ZPA7XqZ0-2" target="uZhzfblo8AT3ZPA7XqZ0-13">
          <mxGeometry relative="1" as="geometry" />
        </mxCell>
        <mxCell id="uZhzfblo8AT3ZPA7XqZ0-2" value="Home Screen" style="rounded=1;whiteSpace=wrap;html=1;fillColor=#fa6800;fontColor=#000000;strokeColor=#C73500;fontFamily=Courier New;" vertex="1" parent="1">
          <mxGeometry x="360" y="240" width="120" height="60" as="geometry" />
        </mxCell>
        <mxCell id="uZhzfblo8AT3ZPA7XqZ0-3" value="Menu" style="whiteSpace=wrap;html=1;rounded=1;fillColor=#60a917;fontColor=#ffffff;strokeColor=#2D7600;fontFamily=Courier New;" vertex="1" parent="1">
          <mxGeometry x="360" y="140" width="120" height="60" as="geometry" />
        </mxCell>
        <mxCell id="uZhzfblo8AT3ZPA7XqZ0-8" value="" style="edgeStyle=orthogonalEdgeStyle;rounded=0;orthogonalLoop=1;jettySize=auto;html=1;fontFamily=Courier New;" edge="1" parent="1" source="uZhzfblo8AT3ZPA7XqZ0-5" target="uZhzfblo8AT3ZPA7XqZ0-7">
          <mxGeometry relative="1" as="geometry" />
        </mxCell>
        <mxCell id="uZhzfblo8AT3ZPA7XqZ0-5" value="Make order" style="whiteSpace=wrap;html=1;rounded=1;fillColor=#1ba1e2;fontColor=#ffffff;strokeColor=#006EAF;fontFamily=Courier New;" vertex="1" parent="1">
          <mxGeometry x="200" y="240" width="120" height="60" as="geometry" />
        </mxCell>
        <mxCell id="uZhzfblo8AT3ZPA7XqZ0-7" value="&lt;div&gt;User&#39;s own&lt;/div&gt;&lt;div&gt;orders&lt;/div&gt;" style="whiteSpace=wrap;html=1;rounded=1;fillColor=#1ba1e2;fontColor=#ffffff;strokeColor=#006EAF;fontFamily=Courier New;" vertex="1" parent="1">
          <mxGeometry x="200" y="340" width="120" height="60" as="geometry" />
        </mxCell>
        <mxCell id="uZhzfblo8AT3ZPA7XqZ0-12" value="" style="edgeStyle=orthogonalEdgeStyle;rounded=0;orthogonalLoop=1;jettySize=auto;html=1;fontFamily=Courier New;" edge="1" parent="1" source="uZhzfblo8AT3ZPA7XqZ0-9" target="uZhzfblo8AT3ZPA7XqZ0-11">
          <mxGeometry relative="1" as="geometry" />
        </mxCell>
        <mxCell id="uZhzfblo8AT3ZPA7XqZ0-9" value="Make reservation" style="whiteSpace=wrap;html=1;rounded=1;fillColor=#1ba1e2;fontColor=#ffffff;strokeColor=#006EAF;fontFamily=Courier New;" vertex="1" parent="1">
          <mxGeometry x="520" y="240" width="120" height="60" as="geometry" />
        </mxCell>
        <mxCell id="uZhzfblo8AT3ZPA7XqZ0-11" value="User&#39;s own reservations" style="whiteSpace=wrap;html=1;rounded=1;fillColor=#1ba1e2;fontColor=#ffffff;strokeColor=#006EAF;fontFamily=Courier New;" vertex="1" parent="1">
          <mxGeometry x="520" y="340" width="120" height="60" as="geometry" />
        </mxCell>
        <mxCell id="uZhzfblo8AT3ZPA7XqZ0-13" value="Admin Login" style="whiteSpace=wrap;html=1;rounded=1;fillColor=#e51400;fontColor=#ffffff;strokeColor=#B20000;fontFamily=Courier New;" vertex="1" parent="1">
          <mxGeometry x="360" y="340" width="120" height="60" as="geometry" />
        </mxCell>
      </root>
    </mxGraphModel>
  </diagram>
</mxfile>
